<svg width="186" height="36" viewBox="0 0 186 36" fill="none" xmlns="http://www.w3.org/2000/svg">
<path fill-rule="evenodd" clip-rule="evenodd" d="M17.8592 2.6552C9.45187 2.6552 2.63635 9.51947 2.63635 17.987C2.63635 26.4545 9.45187 33.3187 17.8592 33.3187C26.2666 33.3187 33.0821 26.4545 33.0821 17.987C33.0821 9.51947 26.2666 2.6552 17.8592 2.6552ZM0 17.987C0 8.05304 7.99585 0 17.8592 0C27.7226 0 35.7185 8.05304 35.7185 17.987C35.7185 27.9208 27.7226 35.9739 17.8592 35.9739C7.99585 35.9739 0 27.9208 0 17.987Z" fill="#434343"/>
<path fill-rule="evenodd" clip-rule="evenodd" d="M14.4984 17.9866C14.4984 16.1165 16.0026 14.6016 17.8594 14.6016C19.7162 14.6016 21.2204 16.1165 21.2204 17.9866C21.2204 19.8566 19.7162 21.3716 17.8594 21.3716C16.0026 21.3716 14.4984 19.8566 14.4984 17.9866Z" fill="#434343"/>
<path fill-rule="evenodd" clip-rule="evenodd" d="M115.058 24.5485C115.053 23.9621 114.862 23.4913 114.529 23.115C114.202 22.7469 113.749 22.4797 113.238 22.2729C112.499 21.9715 111.572 21.7695 110.628 21.5626C110.286 21.4877 109.945 21.4128 109.607 21.333C108.307 21.0218 107.055 20.6309 106.13 19.8978C105.222 19.1811 104.606 18.1206 104.606 16.4151C104.606 14.9669 105.303 13.7485 106.466 12.8818C107.631 12.012 109.261 11.5005 111.095 11.5005C112.929 11.5005 114.54 11.9859 115.684 12.8786C116.756 13.7159 117.432 14.9246 117.505 16.4738H114.603C114.516 15.7732 114.097 15.2113 113.505 14.8203C112.843 14.3837 111.957 14.1541 111.022 14.1541C110.087 14.1541 109.269 14.3837 108.656 14.8154C108.038 15.2504 107.645 15.8889 107.645 16.6741C107.645 17.2084 107.836 17.6336 108.169 17.974C108.491 18.3047 108.939 18.5393 109.442 18.7282C109.947 18.9156 110.527 19.0638 111.137 19.2023C111.354 19.2511 111.575 19.3 111.799 19.3505C112.206 19.4401 112.62 19.5313 113.038 19.6339C114.331 19.9516 115.583 20.367 116.518 21.1196C117.437 21.8575 118.068 22.9342 118.095 24.63C118.113 26.4186 117.387 27.7331 116.175 28.6095C114.953 29.494 113.215 29.9469 111.203 29.9469C109.368 29.9469 107.637 29.4435 106.374 28.502C105.182 27.6126 104.399 26.3322 104.32 24.6805H107.22C107.306 25.4542 107.755 26.083 108.42 26.5179C109.156 27.0001 110.162 27.2575 111.276 27.2575C112.391 27.2575 113.382 27.0017 114.039 26.531C114.702 26.052 115.058 25.363 115.058 24.5567V24.5518V24.5485Z" fill="#434343"/>
<path fill-rule="evenodd" clip-rule="evenodd" d="M94.3471 11.5005C99.4241 11.5005 103.503 15.6104 103.503 20.7221C103.503 25.8338 99.4241 29.9436 94.3471 29.9436C89.2701 29.9436 85.191 25.8354 85.191 20.7221C85.191 15.6087 89.2717 11.5005 94.3471 11.5005ZM94.3843 14.4489C90.8665 14.4489 88.2301 17.2263 88.2301 20.7221C88.2301 24.2178 90.9053 26.9936 94.3843 26.9936C97.8633 26.9936 100.466 24.2113 100.466 20.7221C100.466 17.2329 97.9054 14.4489 94.3843 14.4489Z" fill="#434343"/>
<path fill-rule="evenodd" clip-rule="evenodd" d="M83.357 20.7202V29.6469H80.5346V27.0129C79.2828 28.852 76.7483 29.9401 74.2365 29.9401C69.1967 29.9401 65.0804 25.8303 65.0804 20.7186C65.0804 15.6069 69.1967 11.4971 74.2365 11.4971C79.2763 11.4971 83.3554 15.6053 83.3554 20.7186L83.357 20.7202ZM74.2737 26.9917C77.7576 26.9917 80.3551 24.2095 80.3551 20.7202C80.3551 17.231 77.7948 14.4471 74.2737 14.4471C70.7526 14.4471 68.1195 17.2245 68.1195 20.7202C68.1195 24.216 70.7947 26.9917 74.2737 26.9917Z" fill="#434343"/>
<path fill-rule="evenodd" clip-rule="evenodd" d="M51.9603 9.84987H48.5703V27.327H51.9603C54.126 27.327 56.248 26.7162 57.8347 25.3006C59.4262 23.8818 60.4419 21.686 60.4419 18.5877C60.4419 15.4893 59.4246 13.2935 57.8347 11.8747C56.2497 10.4624 54.126 9.84987 51.9603 9.84987ZM45.4229 29.7998V7.38037H52.1561C55.276 7.38037 58.0822 8.36263 60.1023 10.2441C62.1208 12.1223 63.3824 14.9159 63.3824 18.5893C63.3824 22.2626 62.1208 25.0579 60.1023 26.9345C58.0806 28.8159 55.276 29.7982 52.1561 29.7982H45.4229V29.7998Z" fill="#434343"/>
<path fill-rule="evenodd" clip-rule="evenodd" d="M160.165 12.5918V29.7985H157.343V27.0049C155.967 28.712 153.903 29.7985 151.596 29.7985C147.553 29.7985 144.258 26.4657 144.101 22.2923C144.097 22.188 144.095 22.0838 144.095 21.9795V12.5918H146.916V21.7059C146.916 24.607 149.25 26.9576 152.13 26.9576C155.011 26.9576 157.343 24.607 157.343 21.7059V12.5918H160.165Z" fill="#434343"/>
<path fill-rule="evenodd" clip-rule="evenodd" d="M125.882 29.7983V6.03711H128.704V14.2563C130.08 12.5491 132.144 11.4626 134.451 11.4626C138.494 11.4626 141.789 14.7955 141.946 18.9688C141.95 19.0731 141.952 19.1774 141.952 19.2816V29.7983H139.131V19.5553C139.131 16.6541 136.797 14.3035 133.917 14.3035C131.036 14.3035 128.704 16.6541 128.704 19.5553V29.7983H125.882Z" fill="#434343"/>
<path fill-rule="evenodd" clip-rule="evenodd" d="M171.555 11.5004C169.199 11.5004 167.057 12.3866 165.438 13.8477V6.02734H162.399V20.722C162.399 25.8353 166.478 29.9436 171.555 29.9436C176.632 29.9436 180.711 25.8337 180.711 20.722C180.711 15.6103 176.632 11.5004 171.555 11.5004ZM171.592 26.9935C168.113 26.9935 165.438 24.2178 165.438 20.722C165.438 17.2263 168.074 14.4488 171.592 14.4488C175.11 14.4488 177.674 17.2328 177.674 20.722C177.674 24.2113 175.071 26.9935 171.592 26.9935Z" fill="#434343"/>
</svg>
