<svg width="63" height="62" viewBox="0 0 63 62" fill="none" xmlns="http://www.w3.org/2000/svg">
<rect width="63" height="62" rx="31" fill="white"/>
<path d="M46.267 13.9502H16.7326C16.0543 13.9502 15.4037 14.2154 14.924 14.6875C14.4443 15.1596 14.1748 15.7998 14.1748 16.4674V45.5329C14.1748 46.2006 14.4443 46.8408 14.924 47.3129C15.4037 47.785 16.0543 48.0502 16.7326 48.0502H46.267C46.9453 48.0502 47.5959 47.785 48.0756 47.3129C48.5553 46.8408 48.8248 46.2006 48.8248 45.5329V16.4674C48.8248 15.7998 48.5553 15.1596 48.0756 14.6875C47.5959 14.2154 46.9453 13.9502 46.267 13.9502ZM24.5024 42.9991H19.2929V26.714H24.5024V42.9991ZM21.8941 24.4573C21.3031 24.454 20.7264 24.2785 20.2367 23.953C19.747 23.6275 19.3663 23.1665 19.1426 22.6282C18.9188 22.0899 18.8622 21.4985 18.9796 20.9286C19.0971 20.3586 19.3836 19.8357 19.8028 19.4258C20.222 19.0159 20.7551 18.7374 21.335 18.6254C21.9149 18.5134 22.5155 18.573 23.061 18.7966C23.6065 19.0203 24.0725 19.3979 24.4001 19.8819C24.7277 20.3659 24.9023 20.9346 24.9019 21.5161C24.9074 21.9055 24.8333 22.292 24.6839 22.6525C24.5345 23.0131 24.3128 23.3403 24.0321 23.6148C23.7514 23.8893 23.4175 24.1053 23.0501 24.25C22.6828 24.3948 22.2896 24.4652 21.8941 24.4573ZM43.7043 43.0133H38.4972V34.1166C38.4972 31.4928 37.3638 30.6829 35.9008 30.6829C34.356 30.6829 32.8401 31.829 32.8401 34.1829V43.0133H27.6306V26.7259H32.6404V28.9826H32.7077C33.2106 27.9809 34.972 26.2688 37.6598 26.2688C40.5666 26.2688 43.7067 27.9667 43.7067 32.9396L43.7043 43.0133Z" fill="#434343"/>
</svg>
