<svg width="26" height="26" viewBox="0 0 26 26" fill="none" xmlns="http://www.w3.org/2000/svg">
<path fill-rule="evenodd" clip-rule="evenodd" d="M0 12.5375C0 5.62456 5.62455 0 12.5375 0C19.4505 0 25.075 5.62456 25.075 12.5375C25.075 19.4505 19.4505 25.075 12.5375 25.075C5.62455 25.075 0 19.4505 0 12.5375ZM1.22448 12.5375C1.22448 18.776 6.29902 23.8505 12.5375 23.8505C18.776 23.8505 23.8505 18.776 23.8505 12.5375C23.8505 6.29903 18.776 1.22449 12.5375 1.22449C6.29902 1.22449 1.22448 6.29903 1.22448 12.5375ZM9.96381 12.5212C9.96381 11.1087 11.1087 9.96383 12.5212 9.96383C13.9338 9.96383 15.0786 11.1087 15.0786 12.5212C15.0786 13.9338 13.9338 15.0786 12.5212 15.0786C11.1087 15.0786 9.96381 13.9338 9.96381 12.5212Z" fill="#5177FF"/>
<circle cx="12.5355" cy="12.5375" r="11.4909" stroke="#5177FF" stroke-width="2.08926"/>
</svg>
