<svg width="62" height="62" viewBox="0 0 62 62" fill="none" xmlns="http://www.w3.org/2000/svg">
<rect width="62" height="62" rx="31" fill="white"/>
<path fill-rule="evenodd" clip-rule="evenodd" d="M14.0331 30.6729C23.0702 26.7355 29.0964 24.1398 32.1116 22.8857C40.7207 19.3049 42.5095 18.6829 43.6755 18.6623C43.932 18.6578 44.5053 18.7214 44.8768 19.0227C45.1904 19.2772 45.2767 19.621 45.318 19.8623C45.3593 20.1035 45.4107 20.6532 45.3698 21.0826C44.9033 25.9845 42.8846 37.8799 41.8576 43.37C41.4231 45.6931 40.5674 46.472 39.7391 46.5482C37.9389 46.7139 36.5718 45.3585 34.8282 44.2156C32.0998 42.4271 30.5585 41.3137 27.9101 39.5685C24.8494 37.5515 26.8335 36.443 28.5778 34.6313C29.0342 34.1572 36.9661 26.9426 37.1196 26.2881C37.1388 26.2063 37.1566 25.9012 36.9754 25.74C36.7941 25.5789 36.5266 25.634 36.3335 25.6778C36.0599 25.74 31.7012 28.6209 23.2575 34.3206C22.0204 35.1701 20.8997 35.5841 19.8957 35.5624C18.7889 35.5384 16.6597 34.9365 15.0769 34.422C13.1355 33.791 11.5925 33.4573 11.7269 32.3856C11.7969 31.8273 12.5656 31.2564 14.0331 30.6729Z" fill="#434343"/>
</svg>
