<svg width="62" height="62" viewBox="0 0 62 62" fill="none" xmlns="http://www.w3.org/2000/svg">
<rect width="62" height="62" rx="31" fill="white"/>
<path fill-rule="evenodd" clip-rule="evenodd" d="M14 16.09C14.0001 16.1373 16.9467 19.9462 20.548 24.5546L27.0958 32.9333L21.9317 38.7372C19.0913 41.9292 16.2718 45.0943 15.6661 45.7705L14.5649 47H17.2584H19.952L24.7748 41.6244C27.4274 38.6677 29.63 36.2487 29.6697 36.2487C29.7092 36.2487 31.6332 38.6677 33.945 41.6244L38.1484 47H43.5743H49L47.201 44.6839C46.2114 43.41 43.1009 39.3948 40.2886 35.7611L35.1752 29.1546L39.0061 24.8954C41.113 22.553 43.7778 19.5932 44.9277 18.3182L47.0184 16L44.2935 16.0307L41.5685 16.0614L37.1324 20.9495C34.6927 23.6379 32.6527 25.8111 32.5995 25.7789C32.5461 25.7467 30.8094 23.5343 28.7399 20.8623L24.9775 16.0042H19.4887C16.4698 16.0042 14 16.0428 14 16.09ZM33.0629 31.4449L42.6716 43.8547L41.303 43.887C40.5503 43.9049 39.8716 43.896 39.795 43.8673C39.7183 43.8384 35.5331 38.5483 30.4944 32.1113C25.4557 25.6743 21.0731 20.0846 20.755 19.6896L20.1768 18.9716L21.8156 19.0034L23.4544 19.0352L33.0629 31.4449Z" fill="#434343"/>
</svg>
