<svg width="80" height="81" viewBox="0 0 80 81" fill="none" xmlns="http://www.w3.org/2000/svg">
<path fill-rule="evenodd" clip-rule="evenodd" d="M40 17.125C44.1421 17.125 47.5 13.7671 47.5 9.625C47.5 5.48286 44.1421 2.125 40 2.125C35.8579 2.125 32.5 5.48286 32.5 9.625C32.5 13.7671 35.8579 17.125 40 17.125Z" stroke="#434343" stroke-width="2" stroke-linecap="round" stroke-linejoin="round"/>
<path fill-rule="evenodd" clip-rule="evenodd" d="M55 32.1252C53.2515 25.2684 47.0762 20.4701 40 20.4701C32.9238 20.4701 26.7485 25.2684 25 32.1252H55Z" stroke="#434343" stroke-width="2" stroke-linecap="round" stroke-linejoin="round"/>
<path fill-rule="evenodd" clip-rule="evenodd" d="M16.667 63.7917C20.8091 63.7917 24.167 60.4338 24.167 56.2917C24.167 52.1495 20.8091 48.7917 16.667 48.7917C12.5249 48.7917 9.16699 52.1495 9.16699 56.2917C9.16699 60.4338 12.5249 63.7917 16.667 63.7917Z" stroke="#434343" stroke-width="2" stroke-linecap="round" stroke-linejoin="round"/>
<path fill-rule="evenodd" clip-rule="evenodd" d="M31.667 78.7918C29.9185 71.9351 23.7432 67.1368 16.667 67.1368C9.59083 67.1368 3.41545 71.9351 1.66699 78.7918H31.667Z" stroke="#434343" stroke-width="2" stroke-linecap="round" stroke-linejoin="round"/>
<path fill-rule="evenodd" clip-rule="evenodd" d="M63.334 63.7917C67.4761 63.7917 70.834 60.4338 70.834 56.2917C70.834 52.1495 67.4761 48.7917 63.334 48.7917C59.1918 48.7917 55.834 52.1495 55.834 56.2917C55.834 60.4338 59.1918 63.7917 63.334 63.7917Z" stroke="#434343" stroke-width="2" stroke-linecap="round" stroke-linejoin="round"/>
<path fill-rule="evenodd" clip-rule="evenodd" d="M78.334 78.7918C76.5855 71.9351 70.4102 67.1368 63.334 67.1368C56.2578 67.1368 50.0824 71.9351 48.334 78.7918H78.334Z" stroke="#434343" stroke-width="2" stroke-linecap="round" stroke-linejoin="round"/>
<path d="M50 63.5182C43.584 66.1038 36.416 66.1038 30 63.5182" stroke="#434343" stroke-width="2" stroke-linecap="round" stroke-linejoin="round"/>
<path d="M55 16.745C63.278 22.3858 67.7028 32.1851 66.46 42.125" stroke="#434343" stroke-width="2" stroke-linecap="round" stroke-linejoin="round"/>
<path d="M25.0008 16.745C16.7228 22.3858 12.2981 32.1851 13.5408 42.125" stroke="#434343" stroke-width="2" stroke-linecap="round" stroke-linejoin="round"/>
</svg>
