<svg width="79" height="80" viewBox="0 0 79 80" fill="none" xmlns="http://www.w3.org/2000/svg">
<path d="M34.3398 68.3347H44.3398" stroke="#434343" stroke-width="2" stroke-linecap="round" stroke-linejoin="round"/>
<path d="M34.3398 75.0014H44.3398" stroke="#434343" stroke-width="2" stroke-linecap="round" stroke-linejoin="round"/>
<path d="M39.3398 75.0014V78.3347" stroke="#434343" stroke-width="2" stroke-linecap="round" stroke-linejoin="round"/>
<path fill-rule="evenodd" clip-rule="evenodd" d="M58.903 40.1481C58.5945 29.6469 49.8414 21.3785 39.3397 21.6681C28.8373 21.3767 20.0831 29.6461 19.7764 40.1481C20.1335 48.6474 26.0731 55.884 34.3397 57.8914V61.6681H44.3397V57.8914C52.6063 55.884 58.5459 48.6474 58.903 40.1481V40.1481Z" stroke="#434343" stroke-width="2" stroke-linecap="round" stroke-linejoin="round"/>
<path d="M23.3795 66.4114L19.3395 68.3347C16.9493 69.4807 14.0961 68.9934 12.2218 67.1191C10.3474 65.2447 9.86014 62.3916 11.0061 60.0014L12.9261 55.9581C13.6858 54.3613 13.7331 52.5174 13.0564 50.8838C12.3797 49.2502 11.0424 47.9799 9.37612 47.3881L5.15945 45.8881C2.66602 45.0031 1 42.6439 1 39.9981C1 37.3522 2.66602 34.9931 5.15945 34.1081L9.37612 32.6081C11.0421 32.0168 12.3795 30.7473 13.0568 29.1145C13.7341 27.4816 13.6878 25.6382 12.9295 24.0414L11.0061 20.0014C9.86014 17.6112 10.3474 14.758 12.2218 12.8837C14.0961 11.0094 16.9493 10.5221 19.3395 11.6681L23.3828 13.5881C24.9787 14.3467 26.8214 14.3939 28.4541 13.7179C30.0868 13.042 31.3568 11.7061 31.9495 10.0414L33.4495 5.82473C34.3345 3.33129 36.6936 1.66528 39.3395 1.66528C41.9853 1.66528 44.3445 3.33129 45.2295 5.82473L46.7295 10.0414C47.3213 11.7076 48.5916 13.045 50.2252 13.7217C51.8588 14.3984 53.7027 14.351 55.2995 13.5914L59.3395 11.6681C61.7296 10.5221 64.5828 11.0094 66.4571 12.8837C68.3315 14.758 68.8188 17.6112 67.6728 20.0014L65.7528 24.0447C64.9931 25.6415 64.9458 27.4853 65.6225 29.119C66.2992 30.7526 67.6365 32.0229 69.3028 32.6147L73.5195 34.1147C76.0129 34.9997 77.6789 37.3589 77.6789 40.0047C77.6789 42.6506 76.0129 45.0097 73.5195 45.8947L69.3028 47.3947C67.6365 47.9866 66.2992 49.2569 65.6225 50.8905C64.9458 52.5241 64.9931 54.368 65.7528 55.9647L67.6728 60.0014C68.8188 62.3916 68.3315 65.2447 66.4571 67.1191C64.5828 68.9934 61.7296 69.4807 59.3395 68.3347L55.2961 66.4147" stroke="#434343" stroke-width="2" stroke-linecap="round" stroke-linejoin="round"/>
</svg>
