<svg width="80" height="80" viewBox="0 0 80 80" fill="none" xmlns="http://www.w3.org/2000/svg">
<path fill-rule="evenodd" clip-rule="evenodd" d="M21.667 28.4579C21.667 30.2989 23.1594 31.7913 25.0003 31.7913H28.3337L36.9103 40.3679C37.147 40.6052 37.5027 40.6777 37.8133 40.5519C38.1239 40.426 38.3289 40.1264 38.3337 39.7913V31.7913H61.667C63.5079 31.7913 65.0003 30.2989 65.0003 28.4579V5.1246C65.0003 3.28365 63.5079 1.79127 61.667 1.79127H25.0003C23.1594 1.79127 21.667 3.28365 21.667 5.1246V28.4579Z" stroke="#434343" stroke-width="2" stroke-linecap="round" stroke-linejoin="round"/>
<path d="M31.667 11.7913H54.897" stroke="#434343" stroke-width="2" stroke-linecap="round" stroke-linejoin="round"/>
<path d="M31.667 21.7913H54.897" stroke="#434343" stroke-width="2" stroke-linecap="round" stroke-linejoin="round"/>
<path fill-rule="evenodd" clip-rule="evenodd" d="M16.667 53.4579C20.8091 53.4579 24.167 50.1001 24.167 45.9579C24.167 41.8158 20.8091 38.4579 16.667 38.4579C12.5249 38.4579 9.16699 41.8158 9.16699 45.9579C9.16699 50.1001 12.5249 53.4579 16.667 53.4579Z" stroke="#434343" stroke-width="2" stroke-linecap="round" stroke-linejoin="round"/>
<path d="M27.2303 61.0247C23.2489 57.2701 17.5778 55.903 12.3229 57.431C7.06808 58.959 3.01431 63.154 1.66699 68.458H21.667" stroke="#434343" stroke-width="2" stroke-linecap="round" stroke-linejoin="round"/>
<path fill-rule="evenodd" clip-rule="evenodd" d="M63.334 53.4579C67.4761 53.4579 70.834 50.1001 70.834 45.9579C70.834 41.8158 67.4761 38.4579 63.334 38.4579C59.1918 38.4579 55.834 41.8158 55.834 45.9579C55.834 50.1001 59.1918 53.4579 63.334 53.4579Z" stroke="#434343" stroke-width="2" stroke-linecap="round" stroke-linejoin="round"/>
<path d="M52.7705 61.0247C56.7519 57.2701 62.423 55.903 67.6779 57.431C72.9328 58.959 76.9865 63.154 78.3338 68.458H58.3338" stroke="#434343" stroke-width="2" stroke-linecap="round" stroke-linejoin="round"/>
<path fill-rule="evenodd" clip-rule="evenodd" d="M40 63.4579C44.1421 63.4579 47.5 60.1001 47.5 55.9579C47.5 51.8158 44.1421 48.4579 40 48.4579C35.8579 48.4579 32.5 51.8158 32.5 55.9579C32.5 60.1001 35.8579 63.4579 40 63.4579Z" stroke="#434343" stroke-width="2" stroke-linecap="round" stroke-linejoin="round"/>
<path fill-rule="evenodd" clip-rule="evenodd" d="M55 78.4581C53.2515 71.6013 47.0762 66.8031 40 66.8031C32.9238 66.8031 26.7485 71.6013 25 78.4581H55Z" stroke="#434343" stroke-width="2" stroke-linecap="round" stroke-linejoin="round"/>
</svg>
