<svg width="107" height="106" viewBox="0 0 107 106" fill="none" xmlns="http://www.w3.org/2000/svg">
<path d="M8.85693 77.0498H53.4005" stroke="#434343" stroke-width="3" stroke-linecap="round" stroke-linejoin="round"/>
<path d="M11.5601 24.2158H95.1436" stroke="#434343" stroke-width="3" stroke-linecap="round" stroke-linejoin="round"/>
<path d="M53.3342 50.6328H2.75" stroke="#434343" stroke-width="3" stroke-linecap="round" stroke-linejoin="round"/>
<path d="M50.5955 103.396C25.0425 101.982 4.56229 81.7228 2.87129 56.1866C1.18028 30.6505 18.8102 7.86737 43.9536 3.09611C69.097 -1.67514 93.8476 13.0657 101.629 37.4462" stroke="#434343" stroke-width="3" stroke-linecap="round" stroke-linejoin="round"/>
<path d="M50.1155 2.31592C23.6984 30.9344 24.1783 68.1736 50.5954 103.396" stroke="#434343" stroke-width="3" stroke-linecap="round" stroke-linejoin="round"/>
<path d="M56.5483 2.31592C65.8641 12.0527 72.2406 24.2225 74.9434 37.4242" stroke="#434343" stroke-width="3" stroke-linecap="round" stroke-linejoin="round"/>
<path fill-rule="evenodd" clip-rule="evenodd" d="M103.967 103.467C103.967 91.3087 94.1108 81.4526 81.9527 81.4526C69.7946 81.4526 59.9385 91.3087 59.9385 103.467H103.967Z" stroke="#434343" stroke-width="3" stroke-linecap="round" stroke-linejoin="round"/>
<path fill-rule="evenodd" clip-rule="evenodd" d="M81.9527 74.8526C89.2475 74.8526 95.1612 68.9389 95.1612 61.6441C95.1612 54.3492 89.2475 48.4355 81.9527 48.4355C74.6578 48.4355 68.7441 54.3492 68.7441 61.6441C68.7441 68.9389 74.6578 74.8526 81.9527 74.8526Z" stroke="#434343" stroke-width="3" stroke-linecap="round" stroke-linejoin="round"/>
</svg>
