<svg width="113" height="114" viewBox="0 0 113 114" fill="none" xmlns="http://www.w3.org/2000/svg">
<path fill-rule="evenodd" clip-rule="evenodd" d="M57.7079 92.4813C76.6366 92.4813 91.9813 77.1366 91.9813 58.2079C91.9813 39.2793 76.6366 23.9346 57.7079 23.9346C38.7793 23.9346 23.4346 39.2793 23.4346 58.2079C23.4346 77.1366 38.7793 92.4813 57.7079 92.4813Z" stroke="#434343" stroke-width="3" stroke-linecap="round" stroke-linejoin="round"/>
<path d="M71.697 26.9067L63.8881 39.9087C62.2719 42.6063 62.6968 46.0573 64.9191 48.2824L74.8446 58.2079L73.0789 65.271C72.1638 68.943 74.3976 72.6618 78.0691 73.5789L87.1063 75.8382" stroke="#434343" stroke-width="3" stroke-linecap="round" stroke-linejoin="round"/>
<path d="M23.4399 58.2085L30.8869 59.7001C36.6717 60.8579 41.0671 65.5868 41.7995 71.4408L44.0753 89.6632" stroke="#434343" stroke-width="3" stroke-linecap="round" stroke-linejoin="round"/>
<path d="M94.7236 34.9024L111.175 23.935L56.3374 2L1.5 23.935L23.435 34.9024" stroke="#434343" stroke-width="3" stroke-linecap="round" stroke-linejoin="round"/>
<path d="M111.175 23.9346V88.585L56.3374 111.674L1.5 88.585V23.9346" stroke="#434343" stroke-width="3" stroke-linecap="round" stroke-linejoin="round"/>
<path d="M56.3374 100.708V111.675" stroke="#434343" stroke-width="3" stroke-linecap="round" stroke-linejoin="round"/>
</svg>
