<svg width="94" height="110" viewBox="0 0 94 110" fill="none" xmlns="http://www.w3.org/2000/svg">
<path fill-rule="evenodd" clip-rule="evenodd" d="M28.8801 49.028C43.9936 49.028 56.2455 45.7608 56.2455 41.7306C56.2455 37.7003 43.9936 34.4331 28.8801 34.4331C13.7666 34.4331 1.51465 37.7003 1.51465 41.7306C1.51465 45.7608 13.7666 49.028 28.8801 49.028Z" stroke="#434343" stroke-width="3" stroke-linecap="round" stroke-linejoin="round"/>
<path d="M56.2308 41.9912V52.9374C56.2308 56.9692 43.9821 60.2348 28.8654 60.2348C13.7488 60.2348 1.5 56.9692 1.5 52.9374V41.9912" stroke="#434343" stroke-width="3" stroke-linecap="round" stroke-linejoin="round"/>
<path fill-rule="evenodd" clip-rule="evenodd" d="M58.07 85.776C73.1835 85.776 85.4354 82.5089 85.4354 78.4786C85.4354 74.4483 73.1835 71.1812 58.07 71.1812C42.9565 71.1812 30.7046 74.4483 30.7046 78.4786C30.7046 82.5089 42.9565 85.776 58.07 85.776Z" stroke="#434343" stroke-width="3" stroke-linecap="round" stroke-linejoin="round"/>
<path d="M85.4208 78.4785V89.4247C85.4208 93.4565 73.172 96.7221 58.0554 96.7221C42.9387 96.7221 30.6899 93.4565 30.6899 89.4247V78.4785" stroke="#434343" stroke-width="3" stroke-linecap="round" stroke-linejoin="round"/>
<path d="M85.4208 89.4248V100.371C85.4208 104.403 73.172 107.668 58.0554 107.668C42.9387 107.668 30.6899 104.403 30.6899 100.371V89.4248" stroke="#434343" stroke-width="3" stroke-linecap="round" stroke-linejoin="round"/>
<path d="M56.2308 52.9375V63.8837C56.2308 67.9155 43.9821 71.1811 28.8654 71.1811C13.7488 71.1811 1.5 67.9155 1.5 63.8837V52.9375" stroke="#434343" stroke-width="3" stroke-linecap="round" stroke-linejoin="round"/>
<path d="M1.5 63.8833V74.8295C1.5 78.8613 13.7524 82.1269 28.8654 82.1269H30.6898" stroke="#434343" stroke-width="3" stroke-linecap="round" stroke-linejoin="round"/>
<path d="M1.5 74.8296V85.7758C1.5 89.8076 13.7524 93.0732 28.8654 93.0732H30.6898" stroke="#434343" stroke-width="3" stroke-linecap="round" stroke-linejoin="round"/>
<path d="M56.2456 63.8833V71.1807" stroke="#434343" stroke-width="3" stroke-linecap="round" stroke-linejoin="round"/>
<path d="M87.9795 49.7954L65.1988 49.7982" stroke="#434343" stroke-width="3" stroke-linecap="round" stroke-linejoin="round"/>
<path d="M86.2529 16.0547H32.8748" stroke="#434343" stroke-width="3" stroke-linecap="round" stroke-linejoin="round"/>
<path d="M62.387 32.9248H91.8794" stroke="#434343" stroke-width="3" stroke-linecap="round" stroke-linejoin="round"/>
<path d="M27.9387 27.4831C31.1199 12.7338 44.3102 1.83483 59.8909 2.00189C77.3341 2.18893 91.4846 16.1783 91.8713 33.6182C92.2 48.4401 82.4864 61.2128 68.8704 65.3029" stroke="#434343" stroke-width="3" stroke-linecap="round" stroke-linejoin="round"/>
<path d="M61.6307 2.06934C76.9589 18.6748 78.1072 39.8252 65.5353 60.4251" stroke="#434343" stroke-width="3" stroke-linecap="round" stroke-linejoin="round"/>
<path d="M57.5225 2.06934C50.876 8.97346 46.6051 17.8177 45.3307 27.316" stroke="#434343" stroke-width="3" stroke-linecap="round" stroke-linejoin="round"/>
</svg>
