<svg width="80" height="81" viewBox="0 0 80 81" fill="none" xmlns="http://www.w3.org/2000/svg">
<path d="M49.1303 24.5913L27.917 45.8046" stroke="#434343" stroke-width="2" stroke-linecap="round" stroke-linejoin="round"/>
<path d="M50.3066 37.5513L40.8799 46.978" stroke="#434343" stroke-width="2" stroke-linecap="round" stroke-linejoin="round"/>
<path fill-rule="evenodd" clip-rule="evenodd" d="M44.4168 15.1596C47.0203 12.5561 51.2414 12.5561 53.8449 15.1596L65.63 26.9447C68.2335 29.5482 68.2335 33.7693 65.63 36.3728L39.7028 62.3001C37.0993 64.9036 32.8782 64.9036 30.2747 62.3001L18.4896 50.515C15.8861 47.9115 15.8861 43.6904 18.4896 41.0869L44.4168 15.1596Z" stroke="#434343" stroke-width="2" stroke-linecap="round" stroke-linejoin="round"/>
<path fill-rule="evenodd" clip-rule="evenodd" d="M78.0003 36.1246C75.3453 32.5738 75.3453 27.6988 78.0003 24.148C78.4964 23.4843 78.4297 22.5571 77.8437 21.9713L58.8203 2.94797C58.2346 2.36196 57.3073 2.29522 56.6437 2.79131C53.0929 5.44632 48.2178 5.44632 44.667 2.79131C44.0034 2.29522 43.0761 2.36196 42.4903 2.94797L1.66699 43.768C2.29292 44.3932 2.64461 45.2416 2.64461 46.1263C2.64461 47.011 2.29292 47.8594 1.66699 48.4846L32.307 79.1246C32.9322 78.4987 33.7806 78.147 34.6653 78.147C35.55 78.147 36.3984 78.4987 37.0237 79.1246L77.8437 38.3013C78.4297 37.7156 78.4964 36.7883 78.0003 36.1246Z" stroke="#434343" stroke-width="2" stroke-linecap="round" stroke-linejoin="round"/>
</svg>
