<svg width="80" height="81" viewBox="0 0 80 81" fill="none" xmlns="http://www.w3.org/2000/svg">
<path d="M44.8281 63.3714H34.8438" stroke="#434343" stroke-width="2" stroke-linecap="round" stroke-linejoin="round"/>
<path fill-rule="evenodd" clip-rule="evenodd" d="M74.9012 48.5963C75.5784 49.208 75.975 50.0688 75.9989 50.9789C76.0227 51.889 75.6719 52.7693 75.0277 53.4153C69.8325 58.5955 56.5034 69.9868 39.8362 69.9868C24.1176 69.9868 10.8817 58.1614 5.94943 53.1237C4.72039 51.8729 4.67959 49.8861 5.85624 48.5864C10.7053 43.204 24.0177 30.2286 39.8362 30.2286C53.1187 30.2286 68.9073 43.1974 74.9012 48.5963Z" stroke="#434343" stroke-width="2" stroke-linecap="round" stroke-linejoin="round"/>
<path d="M39.8359 21.9429V12" stroke="#434343" stroke-width="2" stroke-linecap="round" stroke-linejoin="round"/>
<path d="M26.5234 21.9429L24.8594 15.3143" stroke="#434343" stroke-width="2" stroke-linecap="round" stroke-linejoin="round"/>
<path d="M18.2031 26.9143L14.875 21.9429" stroke="#434343" stroke-width="2" stroke-linecap="round" stroke-linejoin="round"/>
<path d="M11.5469 33.5429L6.55469 28.5714" stroke="#434343" stroke-width="2" stroke-linecap="round" stroke-linejoin="round"/>
<path d="M53.1484 21.9429L54.8125 15.3143" stroke="#434343" stroke-width="2" stroke-linecap="round" stroke-linejoin="round"/>
<path d="M61.4688 26.9143L64.7969 21.9429" stroke="#434343" stroke-width="2" stroke-linecap="round" stroke-linejoin="round"/>
<path d="M68.125 33.5429L73.1172 28.5714" stroke="#434343" stroke-width="2" stroke-linecap="round" stroke-linejoin="round"/>
<path fill-rule="evenodd" clip-rule="evenodd" d="M48.1568 45.1429C48.174 41.2419 45.4565 37.8574 41.6314 37.0158C37.8064 36.1743 33.91 38.1037 32.2754 41.6488C30.6407 45.1939 31.7105 49.3943 34.8443 51.735V56.7429H44.8286V51.735C46.918 50.1817 48.151 47.7394 48.1568 45.1429V45.1429Z" stroke="#434343" stroke-width="2" stroke-linecap="round" stroke-linejoin="round"/>
<path fill-rule="evenodd" clip-rule="evenodd" d="M39.8359 70C50.8642 70 59.8045 61.0969 59.8045 50.1143C59.8045 39.1317 50.8642 30.2286 39.8359 30.2286C28.8075 30.2286 19.8672 39.1317 19.8672 50.1143C19.8672 61.0969 28.8075 70 39.8359 70Z" stroke="#434343" stroke-width="2" stroke-linecap="round" stroke-linejoin="round"/>
</svg>
