<svg width="80" height="81" viewBox="0 0 80 81" fill="none" xmlns="http://www.w3.org/2000/svg">
<path fill-rule="evenodd" clip-rule="evenodd" d="M28.334 38.9999C28.334 40.8408 29.8264 42.3332 31.6673 42.3332H38.334V53.9999L50.0007 42.3332H75.0006C76.8416 42.3332 78.334 40.8408 78.334 38.9999V5.66652C78.334 3.82558 76.8416 2.33319 75.0006 2.33319H31.6673C29.8264 2.33319 28.334 3.82558 28.334 5.66652V38.9999Z" stroke="#434343" stroke-width="2" stroke-linecap="round" stroke-linejoin="round"/>
<path fill-rule="evenodd" clip-rule="evenodd" d="M11.667 42.3331C15.8091 42.3331 19.167 38.9752 19.167 34.8331C19.167 30.691 15.8091 27.3331 11.667 27.3331C7.52486 27.3331 4.16699 30.691 4.16699 34.8331C4.16699 38.9752 7.52486 42.3331 11.667 42.3331Z" stroke="#434343" stroke-width="2" stroke-linecap="round" stroke-linejoin="round"/>
<path fill-rule="evenodd" clip-rule="evenodd" d="M11.667 45.6664C6.14414 45.6664 1.66699 50.1436 1.66699 55.6664V62.3331H6.66699L8.33366 78.9998H15.0003L16.667 62.3331H21.667V55.6664C21.667 50.1436 17.1898 45.6664 11.667 45.6664Z" stroke="#434343" stroke-width="2" stroke-linecap="round" stroke-linejoin="round"/>
<path fill-rule="evenodd" clip-rule="evenodd" d="M55.0003 25.6662C53.8525 25.6647 52.7175 25.4252 51.667 24.9629V32.3329H58.3337V24.9629C57.2832 25.4255 56.1481 25.665 55.0003 25.6662V25.6662Z" stroke="#434343" stroke-width="2" stroke-linecap="round" stroke-linejoin="round"/>
<path fill-rule="evenodd" clip-rule="evenodd" d="M55.0003 25.6664C59.6027 25.6664 63.3337 21.9355 63.3337 17.3331C63.3337 12.7307 59.6027 8.99978 55.0003 8.99978C50.398 8.99978 46.667 12.7307 46.667 17.3331C46.667 21.9355 50.398 25.6664 55.0003 25.6664Z" stroke="#434343" stroke-width="2" stroke-linecap="round" stroke-linejoin="round"/>
<path d="M55 32.3332V35.6665" stroke="#434343" stroke-width="2" stroke-linecap="round" stroke-linejoin="round"/>
</svg>
