<svg width="80" height="81" viewBox="0 0 80 81" fill="none" xmlns="http://www.w3.org/2000/svg">
<path fill-rule="evenodd" clip-rule="evenodd" d="M16.667 63.6668C20.8091 63.6668 24.167 60.3089 24.167 56.1668C24.167 52.0246 20.8091 48.6668 16.667 48.6668C12.5249 48.6668 9.16699 52.0246 9.16699 56.1668C9.16699 60.3089 12.5249 63.6668 16.667 63.6668Z" stroke="#434343" stroke-width="2" stroke-linecap="round" stroke-linejoin="round"/>
<path d="M31.667 78.6668C29.9185 71.81 23.7432 67.0117 16.667 67.0117C9.59083 67.0117 3.41545 71.81 1.66699 78.6668" stroke="#434343" stroke-width="2" stroke-linecap="round" stroke-linejoin="round"/>
<path fill-rule="evenodd" clip-rule="evenodd" d="M63.334 63.6669C67.4761 63.6669 70.834 60.309 70.834 56.1669C70.834 52.0247 67.4761 48.6669 63.334 48.6669C59.1918 48.6669 55.834 52.0247 55.834 56.1669C55.834 60.309 59.1918 63.6669 63.334 63.6669Z" stroke="#434343" stroke-width="2" stroke-linecap="round" stroke-linejoin="round"/>
<path d="M48.334 78.6669C50.0824 71.8101 56.2578 67.0118 63.334 67.0118C70.4102 67.0118 76.5855 71.8101 78.334 78.6669" stroke="#434343" stroke-width="2" stroke-linecap="round" stroke-linejoin="round"/>
<path fill-rule="evenodd" clip-rule="evenodd" d="M40 60.3334C44.1421 60.3334 47.5 56.9755 47.5 52.8334C47.5 48.6912 44.1421 45.3334 40 45.3334C35.8579 45.3334 32.5 48.6912 32.5 52.8334C32.5 56.9755 35.8579 60.3334 40 60.3334Z" stroke="#434343" stroke-width="2" stroke-linecap="round" stroke-linejoin="round"/>
<path d="M53.0502 70.9768C50.2577 66.4501 45.3189 63.6938 40.0002 63.6938C34.6815 63.6938 29.7427 66.4501 26.9502 70.9768" stroke="#434343" stroke-width="2" stroke-linecap="round" stroke-linejoin="round"/>
<path d="M25 2.00012L20 7.00012" stroke="#434343" stroke-width="2" stroke-linecap="round" stroke-linejoin="round"/>
<path d="M20 2.00012L25 7.00012" stroke="#434343" stroke-width="2" stroke-linecap="round" stroke-linejoin="round"/>
<path d="M58.334 5.33337L53.334 10.3334" stroke="#434343" stroke-width="2" stroke-linecap="round" stroke-linejoin="round"/>
<path d="M53.334 5.33337L58.334 10.3334" stroke="#434343" stroke-width="2" stroke-linecap="round" stroke-linejoin="round"/>
<path d="M75 18.6669L70 23.6669" stroke="#434343" stroke-width="2" stroke-linecap="round" stroke-linejoin="round"/>
<path d="M70 18.6669L75 23.6669" stroke="#434343" stroke-width="2" stroke-linecap="round" stroke-linejoin="round"/>
<path d="M10 13.6669L5 18.6669" stroke="#434343" stroke-width="2" stroke-linecap="round" stroke-linejoin="round"/>
<path d="M5 13.6669L10 18.6669" stroke="#434343" stroke-width="2" stroke-linecap="round" stroke-linejoin="round"/>
<path d="M51.1338 37.0934C53.809 30.4066 58.8451 24.9339 65.2871 21.7134" stroke="#434343" stroke-width="2" stroke-linecap="round" stroke-linejoin="round"/>
<path d="M30 7.00012L31.3133 7.66679C38.8204 11.4183 43.9562 18.673 45 27.0001V27.0001" stroke="#434343" stroke-width="2" stroke-linecap="round" stroke-linejoin="round"/>
<path d="M16.667 17.0001V17.0001C27.0166 19.0691 35.5369 26.3878 39.1437 36.3068L40.0003 38.6668" stroke="#434343" stroke-width="2" stroke-linecap="round" stroke-linejoin="round"/>
</svg>
