<svg width="80" height="81" viewBox="0 0 80 81" fill="none" xmlns="http://www.w3.org/2000/svg">
<path fill-rule="evenodd" clip-rule="evenodd" d="M68.333 29.8353C72.4751 29.8353 75.833 26.4775 75.833 22.3353C75.833 18.1932 72.4751 14.8353 68.333 14.8353C64.1909 14.8353 60.833 18.1932 60.833 22.3353C60.833 26.4775 64.1909 29.8353 68.333 29.8353Z" stroke="#434343" stroke-width="2" stroke-linecap="round" stroke-linejoin="round"/>
<path fill-rule="evenodd" clip-rule="evenodd" d="M68.333 33.1654C62.8102 33.1654 58.333 37.6426 58.333 43.1654V51.4987H63.333L64.9997 66.4987H71.6663L73.333 51.4987H78.333V43.1654C78.333 37.6426 73.8559 33.1654 68.333 33.1654Z" stroke="#434343" stroke-width="2" stroke-linecap="round" stroke-linejoin="round"/>
<path fill-rule="evenodd" clip-rule="evenodd" d="M11.666 29.8353C15.8082 29.8353 19.166 26.4775 19.166 22.3353C19.166 18.1932 15.8082 14.8353 11.666 14.8353C7.52388 14.8353 4.16602 18.1932 4.16602 22.3353C4.16602 26.4775 7.52388 29.8353 11.666 29.8353Z" stroke="#434343" stroke-width="2" stroke-linecap="round" stroke-linejoin="round"/>
<path fill-rule="evenodd" clip-rule="evenodd" d="M11.666 33.1654C6.14317 33.1654 1.66602 37.6426 1.66602 43.1654V51.4987H6.66602L8.33268 66.4987H14.9993L16.666 51.4987H21.666V43.1654C21.666 37.6426 17.1889 33.1654 11.666 33.1654V33.1654Z" stroke="#434343" stroke-width="2" stroke-linecap="round" stroke-linejoin="round"/>
<path d="M36.6657 39.8319L29.999 48.1652L36.6657 56.4986" stroke="#434343" stroke-width="2" stroke-linecap="round" stroke-linejoin="round"/>
<path d="M44.9993 23.1652L51.666 31.4985L44.9993 39.8318" stroke="#434343" stroke-width="2" stroke-linecap="round" stroke-linejoin="round"/>
<path d="M43.3324 48.1652H29.999" stroke="#434343" stroke-width="2" stroke-linecap="round" stroke-linejoin="round"/>
<path d="M38.3327 31.4987H51.666" stroke="#434343" stroke-width="2" stroke-linecap="round" stroke-linejoin="round"/>
</svg>
